<?xml version="1.0" standalone="no"?><!DOCTYPE svg PUBLIC "-//W3C//DTD SVG 1.1//EN" "http://www.w3.org/Graphics/SVG/1.1/DTD/svg11.dtd"><svg t="1576505182305" class="icon" viewBox="0 0 1024 1024" version="1.1" xmlns="http://www.w3.org/2000/svg" p-id="1455" width="128" height="128" xmlns:xlink="http://www.w3.org/1999/xlink"><defs><style type="text/css"></style></defs><path d="M353.6 588.8c16-12.8 30.4-30.4 0-59.2-97.6-148.8-64-248-48-284.8-12.8-4.8-25.6-8-41.6-8h-4.8c-92.8 0-120 89.6-120 137.6 0 118.4 67.2 166.4 67.2 166.4s4.8 8 4.8 22.4c0 4.8-4.8 16-8 20.8-38.4 30.4-163.2 67.2-176 137.6-4.8 20.8 0 43.2 0 59.2 22.4 16 89.6 30.4 89.6 30.4s4.8-20.8 12.8-48c4.8-41.6 60.8-110.4 200-166.4 6.4 1.6 12.8 1.6 24-8z m640 132.8c-8-72-140.8-102.4-179.2-137.6-4.8-4.8-8-16-8-20.8 0-20.8 4.8-22.4 4.8-22.4s72-48 67.2-166.4c-4.8-51.2-30.4-137.6-123.2-137.6h-4.8c-17.6 0-38.4 4.8-48 12.8C720 320 745.6 444.8 644.8 528c-38.4 59.2 89.6 97.6 72 86.4 118.4 56 150.4 97.6 158.4 140.8 8 35.2 12.8 59.2 12.8 59.2s86.4-16 112-30.4c-1.6-16 1.6-36.8-6.4-62.4z" fill="#008EF2" p-id="1456"></path><path d="M563.2 580.8c-3.2-3.2-8-17.6-8-22.4 0-22.4 3.2-30.4 3.2-30.4s84.8-51.2 84.8-200C640 265.6 604.8 158.4 496 158.4h-8c-112 0-145.6 107.2-145.6 169.6 0 140.8 84.8 200 84.8 200s9.6 9.6 9.6 33.6c0 3.2-8 16-16 17.6-48 38.4-217.6 80-227.2 163.2-8 33.6-59.2 92.8 110.4 115.2 48 8 110.4 9.6 195.2 9.6 388.8 0 310.4-80 297.6-124.8-12.8-80-185.6-123.2-233.6-161.6z" fill="#008EF2" p-id="1457"></path></svg>